<svg width="20" height="14" viewBox="0 0 20 14" xmlns="http://www.w3.org/2000/svg">
    <g fill-rule="nonzero" fill="none">
        <path d="M18.538.346H1.942C1.135.346.48 1 .48 1.807v9.865c0 .808.655 1.462 1.462 1.462h16.596c.807 0 1.462-.654 1.462-1.462V1.807C20 1 19.346.346 18.538.346z" fill="#FF0050"/>
        <g fill="#F5F5F5">
            <path d="m10.144 5.587.527.69.824-.276a.05.05 0 0 1 .058.077l-.493.715.516.698a.05.05 0 0 1-.055.078l-.832-.248-.504.707A.05.05 0 0 1 10.093 8l-.021-.868-.829-.261a.05.05 0 0 1-.001-.096l.819-.289-.008-.868a.05.05 0 0 1 .09-.031zM7.227 9.434a2.693 2.693 0 0 1 0-5.388c.553 0 1.063.17 1.488.458.065.044.14-.042.085-.098a3.338 3.338 0 0 0-2.531-1.03 3.381 3.381 0 0 0-3.24 3.142 3.365 3.365 0 0 0 3.356 3.587c.952 0 1.807-.397 2.417-1.033.054-.056-.02-.14-.085-.097a2.643 2.643 0 0 1-1.49.459z"/>
        </g>
    </g>
</svg>
