<?xml version="1.0" encoding="UTF-8"?>
<svg width="21px" height="14px" viewBox="0 0 21 14" version="1.1" xmlns="http://www.w3.org/2000/svg" xmlns:xlink="http://www.w3.org/1999/xlink">
    <title>china (1)</title>
    <g id="Symbols" stroke="none" stroke-width="1" fill="none" fill-rule="evenodd">
        <g id="Header-Copy" transform="translate(-769.000000, -112.000000)" fill-rule="nonzero">
            <g id="china-(1)" transform="translate(769.551513, 112.243344)">
                <path d="M18.5021484,0 L1.49785156,0 C0.670585938,0 0,0.670585938 0,1.49785156 L0,11.6056641 C0,12.4328906 0.670585938,13.1035156 1.49785156,13.1035156 L18.5021484,13.1035156 C19.329375,13.1035156 20,12.4329297 20,11.6056641 L20,1.49785156 C20,0.670585938 19.3294141,0 18.5021484,0 Z" id="Path" fill="#FF4B55"></path>
                <g id="Group" transform="translate(1.547962, 0.984882)" fill="#FFE15A">
                    <path d="M1.77262364,1.06418031 L2.10137364,2.04988344 L3.14043614,2.05793031 C3.27496739,2.05894594 3.33074864,2.23066469 3.22250646,2.3105475 L2.38664708,2.92777406 L2.70004552,3.91847719 C2.74059239,4.04675844 2.59457677,4.15281312 2.48512364,4.07461 L1.63981114,3.47035219 L0.794498644,4.07457094 C0.685045519,4.15281312 0.539029894,4.04668031 0.579576769,3.91843812 L0.892975207,2.927735 L0.0571158319,2.3105475 C-0.0511263556,2.23062562 0.00465489441,2.05894594 0.139186144,2.05793031 L1.17824864,2.04988344 L1.50699864,1.06418031 C1.54957677,0.936563125 1.73008458,0.936563125 1.77262364,1.06418031 Z" id="Path"></path>
                    <path d="M5.54574864,1.30707094 L5.78149083,1.62847719 L6.16192052,1.50949281 C6.21117833,1.49410219 6.25168614,1.55027406 6.22152989,1.59211 L5.98863927,1.91558656 L6.21934239,2.24062562 C6.24922521,2.28269594 6.20832677,2.33859437 6.15918614,2.32285219 L5.77953771,2.20132875 L5.54168614,2.52121156 C5.51090489,2.56261781 5.44508458,2.54097719 5.44488927,2.48941469 L5.44313146,2.09078187 L5.06539708,1.96339906 C5.01649083,1.94687562 5.01672521,1.87765687 5.06574864,1.861485 L5.44426427,1.73664125 L5.44871739,1.3380475 C5.44926427,1.28660219 5.51524083,1.26546937 5.54574864,1.30707094 Z" id="Path"></path>
                    <path d="M4.11051427,0.348867812 L4.50676427,0.391914687 L4.67582677,0.0309381248 C4.69774083,-0.0157806252 4.76652989,-0.00777281268 4.77703771,0.0427349998 L4.85852208,0.43289125 L5.25406896,0.48211 C5.30527989,0.488477187 5.31891271,0.556367812 5.27410802,0.582031875 L4.92820958,0.78007875 L5.00363927,1.171485 C5.01340489,1.22218812 4.95305333,1.25609437 4.91481114,1.22144594 L4.61953771,0.9536725 L4.27063146,1.14632875 C4.22547521,1.17128969 4.17449864,1.12433656 4.19567052,1.07726625 L4.35906896,0.7136725 L4.06797521,0.44132875 C4.03035802,0.406250625 4.05922521,0.343320937 4.11051427,0.348867812 Z" id="Path"></path>
                    <path d="M4.73699864,4.21191469 L4.50129552,4.53339906 L4.12086583,4.41441469 C4.07160802,4.39902406 4.03110021,4.45515687 4.06125646,4.49703187 L4.29414708,4.82050844 L4.06344396,5.1455475 C4.03356114,5.18761781 4.07445958,5.24351625 4.12360021,5.22777406 L4.50320958,5.10625062 L4.74106114,5.42613344 C4.77184239,5.46753969 4.83766271,5.44589906 4.83785802,5.39433656 L4.83961583,4.99570375 L5.21735021,4.86832094 C5.26625646,4.8517975 5.26602208,4.78257875 5.21699864,4.76640687 L4.83848302,4.64156312 L4.83402989,4.24296937 C4.83340489,4.19144594 4.76750646,4.17027406 4.73699864,4.21191469 Z" id="Path"></path>
                    <path d="M6.17215489,3.31144594 L5.77586583,3.35449281 L5.60680333,2.99351625 C5.58488927,2.9467975 5.51613927,2.95480531 5.50559239,3.00531312 L5.42406896,3.39546937 L5.02852208,3.44468812 C4.97731114,3.45105531 4.96367833,3.51894594 5.00848302,3.54461 L5.35438146,3.74265687 L5.27895177,4.13406312 C5.26918614,4.18476625 5.32953771,4.2186725 5.36777989,4.18402406 L5.66305333,3.91625062 L6.01195958,4.10890687 C6.05711583,4.13386781 6.10809239,4.08691469 6.08692052,4.03984437 L5.92352208,3.67625062 L6.21461583,3.40390687 C6.25238927,3.36882875 6.22352208,3.30589906 6.17215489,3.31144594 Z" id="Path"></path>
                </g>
            </g>
        </g>
    </g>
</svg>